<?xml version="1.0" encoding="iso-8859-1"?>
<!-- Generator: Adobe Illustrator 19.0.0, SVG Export Plug-In . SVG Version: 6.00 Build 0)  -->
<svg version="1.1" id="Capa_1" xmlns="http://www.w3.org/2000/svg" xmlns:xlink="http://www.w3.org/1999/xlink" x="0px" y="0px"
	 viewBox="0 0 512 512" style="enable-background:new 0 0 512 512; fill:#f5f5f5;" xml:space="preserve">
<g>
	<g>
		<g>
			<circle cx="256" cy="320" r="42.667"/>
			<path d="M334.633,145.029c25.681-2.975,40.272-6.432,41.284-6.685c4.75-1.188,8.083-5.448,8.083-10.344
				C384,57.417,326.583,0,256,0c-32.801,0-62.66,12.505-85.333,32.863V10.667C170.667,4.771,165.896,0,160,0
				s-10.667,4.771-10.667,10.667v46.729C135.882,77.652,128,101.914,128,128c0,4.896,3.333,9.156,8.083,10.344
				c1.012,0.253,15.603,3.71,41.284,6.685C110.641,175.142,64,242.168,64,320c0,105.865,86.135,192,192,192s192-86.135,192-192
				C448,242.168,401.359,175.142,334.633,145.029z M288,85.333c5.891,0,10.667,4.775,10.667,10.667
				c0,5.891-4.776,10.667-10.667,10.667S277.333,101.891,277.333,96C277.333,90.108,282.109,85.333,288,85.333z M256,42.667
				c11.76,0,21.333,9.573,21.333,21.333S267.76,85.333,256,85.333S234.667,75.76,234.667,64S244.24,42.667,256,42.667z
				 M414.574,382.708c-26.018-5.01-46.385-25.797-50.829-52.042h-44.823c-4.523,26.719-25.536,47.732-52.255,52.255v44.823
				c26.245,4.444,47.031,24.811,52.042,50.829c-6.674,2.65-13.568,4.827-20.621,6.625C295.383,464.257,277.651,448,256,448
				c-21.656,0-39.393,16.267-42.113,37.193c-7.044-1.798-13.93-3.973-20.595-6.619c5.01-26.018,25.797-46.385,52.042-50.829v-44.823
				c-26.719-4.523-47.732-25.536-52.255-52.255h-44.823c-4.444,26.245-24.811,47.031-50.829,52.042
				c-2.65-6.674-4.827-13.568-6.625-20.622C111.74,359.382,128,341.641,128,320c0-21.656-16.267-39.393-37.193-42.113
				c1.798-7.044,3.973-13.93,6.618-20.595c26.018,5.01,46.385,25.797,50.829,52.042h44.823
				c4.523-26.719,25.536-47.732,52.255-52.255v-44.823c-26.245-4.444-47.031-24.811-52.042-50.829
				c6.674-2.65,13.568-4.827,20.621-6.625C216.617,175.743,234.349,192,256,192c21.656,0,39.393-16.267,42.113-37.193
				c7.044,1.798,13.93,3.973,20.595,6.618c-5.01,26.018-25.797,46.385-52.042,50.829v44.823
				c26.719,4.523,47.732,25.536,52.255,52.255h44.823c4.444-26.245,24.811-47.031,50.829-52.042
				c2.65,6.674,4.827,13.568,6.625,20.622C400.26,280.618,384,298.359,384,320c0,21.656,16.267,39.393,37.193,42.113
				C419.395,369.158,417.22,376.043,414.574,382.708z"/>
		</g>
	</g>
</g>
<g>
</g>
<g>
</g>
<g>
</g>
<g>
</g>
<g>
</g>
<g>
</g>
<g>
</g>
<g>
</g>
<g>
</g>
<g>
</g>
<g>
</g>
<g>
</g>
<g>
</g>
<g>
</g>
<g>
</g>
</svg>
